<svg width="66" height="29" viewBox="0 0 66 29" fill="none" xmlns="http://www.w3.org/2000/svg">
<path d="M55.8011 0L65.4909 14.9419L57.1398 28.89H10.8843L16.8979 16.5366H12.6554L0 0H55.8011Z" fill="black"/>
<path d="M7.21875 3H13.1603L16.1465 7.50684L15.0859 3H19.7197L22.7162 7.47217L21.7071 3H25.3729L27.0411 12.5915H21.6968L18.9371 8.87044L19.6064 12.5915H14.6122L7.21875 3ZM26.0216 3H31.438L35.9894 12.5915H30.5833L26.0216 3ZM37.431 12.5915L32.8796 3H38.1518L41.5088 10.0723H46.0087L47.2032 12.5915H37.431ZM57.9536 11.5399C57.068 12.5337 55.5852 12.603 54.2877 12.603H48.0579L43.5064 3.01156H50.766C53.8346 3.01156 55.1527 3.72803 56.1206 4.81429C57.1916 6.01611 58.489 8.45443 58.489 10.0145C58.489 10.7425 58.2522 11.1932 57.9536 11.5399ZM53.052 8.52376L52.218 6.76725C51.7855 5.84277 51.2294 5.43831 50.4159 5.43831H49.726L51.9708 10.1763H52.6505C53.1653 10.1763 53.4742 10.0029 53.4742 9.66781C53.4639 9.40202 53.3198 9.07845 53.052 8.52376Z" fill="white"/>
<path d="M26.7839 25.0026H17.0117L21.5631 15.4111H26.8353L23.4784 22.4834H27.9784L26.7839 25.0026ZM33.0652 25.0026H27.6488L32.2002 15.4111H37.6166L33.0652 25.0026ZM47.6565 18.1499H42.9094L42.2195 19.5482H46.6062L45.422 22.0558H41.0456L39.6246 25.0026H34.5068L39.0583 15.4111H48.954L47.6565 18.1499ZM59.0659 17.8379H53.8658L53.2788 19.005H58.1186L57.0065 21.3625H52.177L51.5798 22.5759H56.9653L55.812 25.0026H45.4941L50.0455 15.4111H60.2192L59.0659 17.8379Z" fill="white"/>
</svg>
