<svg width="1024" height="1024" viewBox="0 0 1024 1024" fill="none" xmlns="http://www.w3.org/2000/svg">
<g clip-path="url(#clip0)">
<rect width="1024" height="1024" fill="#CA6D58"/>
<path d="M115.597 718.822L116.113 718.535C191.985 676.212 302.012 685.387 382.292 710.392C419.359 721.938 451.546 747.195 484.263 768.537C589.796 837.378 729.318 827.124 844.497 790.917C903.379 772.406 959.104 743.039 997.701 693.532C1034.18 646.749 1048.94 587.894 1043.07 529.204C1031.7 415.391 985.341 308.432 903.457 227.748C844.2 169.357 771.186 127.481 694.436 96.5256C544.671 36.1213 378.628 49.5326 235.447 123.891C213.205 135.424 191.735 148.39 171.174 162.708C141.566 183.354 114.072 206.877 89.0959 232.936C27.2599 300.139 -36.3843 396.19 -36.7299 490.261C-36.9107 539.017 -14.6658 578.332 31.81 597.695C76.1671 616.179 2.28342 737.753 62.2823 738.334C81.9829 738.527 98.9891 728.108 115.597 718.822Z" fill="#0F5B8D"/>
<path d="M314.267 498.503C314.267 498.503 460.766 386.496 511.961 394.593C582.1 405.69 745.139 556.793 745.139 556.793L314.267 498.503Z" fill="#033951"/>
<path d="M-59.0447 393.401C-59.0447 393.401 100.238 316.163 183.196 321.18C264.459 326.097 527.792 517.208 527.792 517.208C527.792 517.208 647.207 407.158 807.564 417.475C967.921 427.791 892.86 345.254 978.157 386.523C1063.45 427.792 1083.92 455.305 1083.92 455.305V620.378H-55.6328C-55.6328 620.378 -62.4566 389.961 -59.0447 393.401Z" fill="#044568"/>
<path d="M-59.2082 503.511C-59.2082 503.511 84.4234 338.769 499.901 508.109C683.539 582.955 1002.36 433.264 1081.42 509.934L1080.94 1016.67L-58.8587 1024C-58.8587 1024 -59.2082 492.557 -59.2082 503.511Z" fill="#E6881C"/>
<path d="M798.35 480.365C798.35 480.365 802.407 499.633 779.082 521.943C779.082 521.943 853.22 568.679 936.841 518.395C936.841 518.395 916.015 502.218 915 477.882C914.997 477.879 798.35 477.324 798.35 480.365Z" fill="#F19532"/>
<path d="M857.306 489.217C889.762 488.535 915.976 483.32 915.855 477.569C915.734 471.818 889.325 467.708 856.868 468.389C824.411 469.071 798.198 474.286 798.318 480.037C798.439 485.789 824.849 489.898 857.306 489.217Z" fill="#E0710E"/>
<path d="M856.857 468.417C839.199 468.781 823.401 470.488 812.677 472.893C832.574 473.938 882.218 477.019 908.523 482.835C913.204 481.239 915.864 479.46 915.827 477.623C915.708 471.872 889.306 467.751 856.857 468.417Z" fill="#F19532"/>
<path d="M850.409 491.304C837.208 491.304 824.961 490.511 815.368 489.013C798.405 486.365 796.374 482.644 796.324 480.076C796.122 470.266 835.804 466.856 856.817 466.425C872.628 466.099 887.525 466.889 898.774 468.645C915.735 471.293 917.766 475.014 917.818 477.583C918.02 487.393 878.338 490.802 857.326 491.234C854.997 491.28 852.691 491.304 850.409 491.304ZM863.911 470.338C861.643 470.338 859.305 470.363 856.897 470.412C820.791 471.154 800.863 477.055 800.304 480.012C800.984 482.913 821.129 487.993 857.244 487.251C893.288 486.511 913.209 480.628 913.833 477.667C913.137 474.928 895.545 470.336 863.911 470.336V470.338Z" fill="#FCD2AE"/>
<path d="M547.814 757.675C547.814 757.675 554.813 790.92 514.566 829.413C514.566 829.413 642.488 910.053 786.767 823.292C786.767 823.292 750.834 795.379 749.084 753.387C749.085 753.387 547.814 752.426 547.814 757.675Z" fill="#D16309"/>
<path d="M649.541 772.949C705.543 771.773 750.773 762.775 750.564 752.851C750.356 742.927 704.788 735.836 648.786 737.012C592.784 738.188 547.555 747.186 547.763 757.11C547.971 767.034 593.539 774.125 649.541 772.949Z" fill="#B34934"/>
<path d="M648.765 737.059C618.299 737.684 591.042 740.629 572.536 744.781C606.865 746.587 692.524 751.904 737.91 761.935C745.99 759.183 750.577 756.111 750.513 752.942C750.309 743.02 704.755 735.909 648.765 737.059Z" fill="#E0710E"/>
<path d="M637.643 776.432C614.87 776.432 593.744 775.063 577.197 772.481C548.022 767.925 544.525 761.562 544.435 757.173C544.345 752.785 547.577 746.284 576.54 740.536C595.804 736.713 621.43 734.299 648.698 733.74C675.966 733.181 701.667 734.54 721.071 737.569C750.25 742.125 753.743 748.485 753.833 752.876C753.923 757.267 750.691 763.766 721.727 769.513C702.464 773.336 676.838 775.751 649.573 776.31C645.556 776.392 641.579 776.432 637.643 776.432ZM660.615 740.257C656.73 740.257 652.802 740.298 648.834 740.379C622.362 740.923 597.426 743.238 578.621 746.896C552.78 751.922 551.079 756.995 551.075 757.044C551.081 757.081 552.99 762.079 579.013 766.04C597.953 768.925 622.963 770.213 649.433 769.669C675.903 769.125 700.841 766.811 719.645 763.152C745.067 758.207 747.125 753.214 747.189 753.01C747.116 752.806 744.853 747.906 719.253 744.008C703.153 741.556 682.66 740.257 660.615 740.257Z" fill="#F9B978"/>
<path d="M679.399 649.245C679.399 653.64 672.025 657.203 662.933 657.203C653.842 657.203 646.468 653.64 646.468 649.245C646.468 644.85 653.842 641.287 662.933 641.287C672.024 641.287 679.399 644.851 679.399 649.245ZM1016.67 952.186C1007.97 952.186 1000.91 955.594 1000.91 959.798C1000.91 964.002 1007.97 967.412 1016.67 967.412C1025.37 967.412 1032.42 964.004 1032.42 959.798C1032.42 955.592 1025.37 952.186 1016.67 952.186ZM633.473 940.8C624.771 940.8 617.718 944.209 617.718 948.414C617.718 952.618 624.772 956.027 633.473 956.027C642.174 956.027 649.227 952.619 649.227 948.414C649.227 944.208 642.174 940.8 633.473 940.8ZM924.038 797.508C915.338 797.508 908.284 800.918 908.284 805.122C908.284 809.326 915.337 812.736 924.038 812.736C932.74 812.736 939.793 809.326 939.793 805.122C939.793 800.918 932.74 797.508 924.038 797.508ZM-23.2522 798.99C-31.9541 798.99 -39.0068 802.398 -39.0068 806.604C-39.0068 810.81 -31.9534 814.218 -23.2522 814.218C-14.5509 814.218 -7.49761 810.808 -7.49761 806.604C-7.49761 802.4 -14.5554 798.99 -23.2522 798.99ZM9.04951 507.507C0.347626 507.507 -6.70506 510.915 -6.70506 515.121C-6.70506 519.327 0.348267 522.733 9.04951 522.733C17.7508 522.733 24.8041 519.325 24.8041 515.121C24.8041 510.917 17.7495 507.507 9.04951 507.507ZM438.36 692.701C429.66 692.701 422.606 696.109 422.606 700.315C422.606 704.521 429.659 707.929 438.36 707.929C447.062 707.929 454.115 704.519 454.115 700.315C454.115 696.111 447.062 692.701 438.36 692.701ZM557.428 544.626C551.972 544.626 547.546 546.764 547.546 549.401C547.546 552.038 551.97 554.176 557.428 554.176C562.886 554.176 567.311 552.038 567.311 549.401C567.311 546.765 562.885 544.626 557.428 544.626ZM1043.69 506.156C1034.99 506.156 1027.94 509.564 1027.94 513.77C1027.94 517.976 1034.99 521.384 1043.69 521.384C1052.39 521.384 1059.45 517.974 1059.45 513.77C1059.45 509.566 1052.39 506.154 1043.69 506.154V506.156ZM927.627 555.385C909.913 555.385 895.552 562.323 895.552 570.883C895.552 579.444 909.916 586.384 927.627 586.384C945.339 586.384 959.701 579.444 959.701 570.883C959.701 562.323 945.339 555.381 927.627 555.381V555.385Z" fill="#B34934"/>
<path d="M57.5123 98.4151L50.727 100.873L48.9053 107.858L44.4701 102.164L37.2635 102.591L41.3082 96.6122L38.6748 89.8934L45.6114 91.8919L51.19 87.3114L51.433 94.5252L57.5123 98.4151ZM544.084 128.789L543.756 119.024L536.204 125.226L526.816 122.519L530.381 131.617L524.907 139.711L534.661 139.134L540.667 146.841L543.131 137.386L552.317 134.056L544.084 128.789ZM233.979 183.601L242.648 180.088L234.055 177.433L230.933 166.753L227.808 177.433L219.687 180.243L228.121 183.367L230.933 195.738L233.979 183.601ZM263.329 161.911L271.996 158.396L263.404 155.742L260.281 145.065L257.156 155.742L249.035 158.553L257.469 161.676L260.281 174.047L263.329 161.911ZM932.737 76.0788L938.153 73.8847L932.786 72.2267L930.834 65.5547L928.883 72.2267L923.809 73.9822L929.079 75.9333L930.834 83.6619L932.737 76.0788ZM947.569 302.512L955.322 299.37L947.639 296.998L944.847 287.45L942.054 296.998L934.791 299.513L942.334 302.305L944.847 313.367L947.569 302.512ZM549.312 182.132C548.095 182.132 546.905 182.493 545.893 183.17C544.88 183.846 544.091 184.807 543.625 185.932C543.159 187.057 543.038 188.294 543.275 189.488C543.513 190.682 544.099 191.779 544.96 192.64C545.821 193.501 546.918 194.087 548.112 194.324C549.306 194.562 550.543 194.44 551.668 193.974C552.793 193.508 553.754 192.719 554.431 191.707C555.107 190.695 555.468 189.505 555.468 188.288C555.468 187.479 555.309 186.679 554.999 185.932C554.69 185.185 554.236 184.507 553.664 183.935C553.093 183.364 552.414 182.91 551.667 182.601C550.92 182.292 550.12 182.133 549.311 182.133L549.312 182.132ZM427.675 211.739C426.457 211.739 425.267 212.1 424.255 212.776C423.242 213.453 422.453 214.414 421.987 215.539C421.522 216.663 421.4 217.901 421.637 219.095C421.875 220.289 422.461 221.386 423.322 222.246C424.183 223.107 425.28 223.693 426.474 223.931C427.668 224.168 428.905 224.047 430.03 223.581C431.155 223.115 432.116 222.326 432.793 221.314C433.469 220.301 433.83 219.111 433.83 217.894C433.83 216.262 433.182 214.696 432.027 213.542C430.873 212.387 429.307 211.739 427.675 211.739ZM445.235 321.237C443.341 321.237 441.49 321.799 439.915 322.851C438.341 323.903 437.113 325.399 436.389 327.149C435.664 328.899 435.475 330.824 435.844 332.681C436.214 334.539 437.126 336.245 438.465 337.584C439.805 338.923 441.511 339.835 443.368 340.204C445.226 340.574 447.151 340.384 448.901 339.66C450.651 338.935 452.147 337.708 453.199 336.133C454.251 334.558 454.813 332.707 454.813 330.813C454.813 329.556 454.565 328.31 454.084 327.148C453.602 325.986 452.897 324.931 452.007 324.042C451.118 323.152 450.062 322.447 448.9 321.966C447.738 321.485 446.492 321.237 445.235 321.237L445.235 321.237ZM142.102 138.282C140.885 138.282 139.695 138.643 138.682 139.319C137.67 139.995 136.881 140.957 136.415 142.081C135.949 143.206 135.827 144.444 136.065 145.638C136.302 146.832 136.889 147.928 137.75 148.789C138.61 149.65 139.707 150.236 140.901 150.474C142.095 150.711 143.333 150.589 144.458 150.124C145.583 149.658 146.544 148.869 147.221 147.856C147.897 146.844 148.258 145.654 148.258 144.437C148.258 143.628 148.099 142.828 147.789 142.081C147.48 141.334 147.026 140.656 146.455 140.084C145.883 139.513 145.204 139.059 144.458 138.75C143.711 138.441 142.91 138.282 142.102 138.282H142.102ZM1002.3 127.33C1001.09 127.33 999.896 127.691 998.884 128.367C997.872 129.044 997.083 130.005 996.617 131.13C996.151 132.254 996.029 133.492 996.267 134.686C996.504 135.88 997.09 136.977 997.951 137.837C998.812 138.698 999.909 139.285 1001.1 139.522C1002.3 139.76 1003.53 139.638 1004.66 139.172C1005.78 138.706 1006.75 137.917 1007.42 136.905C1008.1 135.892 1008.46 134.702 1008.46 133.485C1008.46 132.677 1008.3 131.876 1007.99 131.129C1007.68 130.383 1007.23 129.704 1006.66 129.132C1006.08 128.561 1005.41 128.107 1004.66 127.798C1003.91 127.489 1003.11 127.33 1002.3 127.33H1002.3ZM20.4644 167.888C19.2469 167.888 18.0568 168.249 17.0445 168.925C16.0322 169.602 15.2432 170.563 14.7773 171.688C14.3114 172.813 14.1895 174.05 14.427 175.244C14.6645 176.438 15.2508 177.535 16.1117 178.396C16.9725 179.257 18.0694 179.843 19.2634 180.08C20.4575 180.318 21.6952 180.196 22.82 179.73C23.9448 179.264 24.9062 178.475 25.5826 177.463C26.259 176.451 26.62 175.261 26.62 174.043C26.62 172.411 25.9715 170.845 24.817 169.691C23.6626 168.537 22.0969 167.888 20.4644 167.888Z" fill="#FFD69F"/>
<path d="M171.3 686L171 630.35L144 675.65H130.8L103.95 631.85V686H76.5V581H100.95L137.85 641.6L173.85 581H198.3L198.6 686H171.3ZM289.965 665.6H245.565L237.315 686H207.015L253.365 581H282.615L329.115 686H298.215L289.965 665.6ZM281.265 643.7L267.765 610.1L254.265 643.7H281.265ZM383.435 658.1H367.235V686H337.535V581H385.535C395.035 581 403.285 582.6 410.285 585.8C417.285 588.9 422.685 593.4 426.485 599.3C430.285 605.1 432.185 611.95 432.185 619.85C432.185 627.45 430.385 634.1 426.785 639.8C423.285 645.4 418.235 649.8 411.635 653L434.285 686H402.485L383.435 658.1ZM402.185 619.85C402.185 614.95 400.635 611.15 397.535 608.45C394.435 605.75 389.835 604.4 383.735 604.4H367.235V635.15H383.735C389.835 635.15 394.435 633.85 397.535 631.25C400.635 628.55 402.185 624.75 402.185 619.85ZM469.455 604.55H437.205V581H531.255V604.55H499.155V686H469.455V604.55ZM626.62 663.05V686H542.32V581H624.67V603.95H571.72V621.65H618.37V643.85H571.72V663.05H626.62ZM152.25 845.45V869H70.5V850.4L109.8 813.65C113.6 810.05 116.15 807 117.45 804.5C118.75 801.9 119.4 799.3 119.4 796.7C119.4 793.3 118.25 790.65 115.95 788.75C113.65 786.85 110.3 785.9 105.9 785.9C102 785.9 98.4 786.8 95.1 788.6C91.9 790.3 89.25 792.8 87.15 796.1L65.1 783.8C69.2 777 74.95 771.65 82.35 767.75C89.75 763.85 98.5 761.9 108.6 761.9C116.6 761.9 123.65 763.2 129.75 765.8C135.95 768.4 140.75 772.15 144.15 777.05C147.65 781.85 149.4 787.45 149.4 793.85C149.4 799.55 148.15 804.95 145.65 810.05C143.25 815.05 138.55 820.75 131.55 827.15L111.75 845.45H152.25ZM207.098 871.1C198.098 871.1 190.098 868.95 183.098 864.65C176.098 860.35 170.598 854.1 166.598 845.9C162.698 837.6 160.748 827.8 160.748 816.5C160.748 805.2 162.698 795.45 166.598 787.25C170.598 778.95 176.098 772.65 183.098 768.35C190.098 764.05 198.098 761.9 207.098 761.9C215.998 761.9 223.948 764.05 230.948 768.35C237.948 772.65 243.398 778.95 247.298 787.25C251.298 795.45 253.298 805.2 253.298 816.5C253.298 827.8 251.298 837.6 247.298 845.9C243.398 854.1 237.948 860.35 230.948 864.65C223.948 868.95 215.998 871.1 207.098 871.1ZM207.098 846.8C212.098 846.8 216.048 844.4 218.948 839.6C221.948 834.7 223.448 827 223.448 816.5C223.448 806 221.948 798.35 218.948 793.55C216.048 788.65 212.098 786.2 207.098 786.2C201.998 786.2 197.948 788.65 194.948 793.55C192.048 798.35 190.598 806 190.598 816.5C190.598 827 192.048 834.7 194.948 839.6C197.948 844.4 201.998 846.8 207.098 846.8ZM348.491 764V782.6L311.441 869H279.041L314.441 787.55H286.841V803.75H261.491V764H348.491ZM443.266 764V782.6L406.216 869H373.816L409.216 787.55H381.616V803.75H356.266V764H443.266Z" fill="black"/>
<path d="M427.67 319.906C469.865 319.843 504.02 285.588 503.957 243.396C503.893 201.203 469.636 167.051 427.441 167.115C385.246 167.178 351.091 201.433 351.155 243.625C351.218 285.817 385.475 319.969 427.67 319.906Z" fill="black"/>
<path d="M409.903 220.475C409.893 200.655 417.554 181.601 431.28 167.303C430.039 167.243 428.814 167.117 427.557 167.117C414.976 167.113 402.588 170.216 391.495 176.151C380.401 182.085 370.945 190.667 363.966 201.134C356.987 211.602 352.701 223.63 351.489 236.152C350.277 248.674 352.177 261.302 357.019 272.913C361.861 284.524 369.495 294.76 379.245 302.712C388.994 310.663 400.557 316.084 412.905 318.493C425.254 320.902 438.006 320.224 450.03 316.52C462.053 312.816 472.976 306.2 481.827 297.26C462.333 295.974 444.057 287.326 430.702 273.069C417.347 258.811 409.911 240.01 409.903 220.475Z" fill="#391C1C"/>
<path d="M444.851 207.71C451.068 207.71 456.108 204.197 456.108 199.864C456.108 195.531 451.068 192.018 444.851 192.018C438.633 192.018 433.593 195.531 433.593 199.864C433.593 204.197 438.633 207.71 444.851 207.71Z" fill="#391C1C"/>
<path d="M446.258 269.846C450.921 269.846 454.702 266.914 454.702 263.297C454.702 259.679 450.921 256.747 446.258 256.747C441.595 256.747 437.815 259.679 437.815 263.297C437.815 266.914 441.595 269.846 446.258 269.846Z" fill="#391C1C"/>
<path d="M481.439 250.428C489.212 250.428 495.512 245.227 495.512 238.812C495.512 232.397 489.212 227.197 481.439 227.197C473.667 227.197 467.367 232.397 467.367 238.812C467.367 245.227 473.667 250.428 481.439 250.428Z" fill="#391C1C"/>
<path d="M381.524 242.661C389.297 242.661 395.597 237.94 395.597 232.115C395.597 226.29 389.297 221.568 381.524 221.568C373.752 221.568 367.452 226.29 367.452 232.115C367.452 237.94 373.752 242.661 381.524 242.661Z" fill="#3E3123"/>
<path d="M401.226 300.915C405.89 300.915 409.67 298.272 409.67 295.013C409.67 291.754 405.89 289.112 401.226 289.112C396.563 289.112 392.783 291.754 392.783 295.013C392.783 298.272 396.563 300.915 401.226 300.915Z" fill="#1F170D"/>
<path d="M379.854 285.5C361.52 295.167 346 309.5 363 336" stroke="#391C1C" stroke-width="14"/>
<path d="M364.155 310.938L369.655 327.868L387.456 327.868L373.055 338.33L378.555 355.259L364.155 345.938L349.754 355.259L355.255 338.33L340.854 327.868L358.654 327.868L364.155 310.938Z" fill="#DBFF00"/>
<path d="M349.036 316.897L364.607 325.521L377.621 313.377L374.231 330.852L389.802 339.476L372.914 342.486L368.745 359.126L361.217 342.996L343.55 345.171L356.564 333.027L349.036 316.897Z" fill="#DBFF00"/>
<path d="M906.229 642.393C900.748 645.329 897.964 650.805 900.009 654.625C902.055 658.445 908.157 659.162 913.638 656.226C919.119 653.291 921.903 647.815 919.858 643.995C917.812 640.175 911.71 639.458 906.229 642.393Z" fill="#391C1C"/>
<path d="M827.186 638.302C827.186 638.302 832.843 665.167 800.324 696.268C800.324 696.268 903.681 761.424 1020.26 691.322C1020.26 691.322 991.226 668.769 989.812 634.835C989.815 634.839 827.186 634.062 827.186 638.302Z" fill="#E0710E"/>
<path d="M909.384 650.644C954.634 649.694 991.179 642.423 991.011 634.405C990.842 626.386 954.024 620.656 908.774 621.607C863.524 622.557 826.978 629.827 827.147 637.846C827.315 645.864 864.134 651.594 909.384 650.644Z" fill="#B34934"/>
<path d="M908.756 621.644C884.14 622.149 862.117 624.529 847.164 627.883C874.9 629.341 944.116 633.636 980.787 641.743C987.314 639.52 991.021 637.038 990.968 634.477C990.805 626.462 953.996 620.716 908.756 621.644Z" fill="#F19532"/>
<path d="M899.771 654.097C881.338 654.097 864.231 652.986 850.831 650.895C826.785 647.141 823.897 641.687 823.819 637.91C823.741 634.134 826.4 628.567 850.275 623.828C865.875 620.733 886.62 618.778 908.69 618.325C930.76 617.873 951.565 618.973 967.281 621.427C991.327 625.18 994.212 630.634 994.291 634.411C994.37 638.187 991.712 643.755 967.837 648.493C952.235 651.588 931.492 653.543 909.422 653.996C906.174 654.064 902.957 654.098 899.771 654.097ZM830.53 637.772C833.149 641.84 860.977 648.352 909.284 647.357C957.59 646.362 985.127 638.719 987.576 634.549C984.956 630.48 957.139 623.969 908.822 624.964C860.505 625.96 832.981 633.601 830.53 637.772V637.772Z" fill="#F9B978"/>
<path d="M891.566 307.999C902.786 279.28 850.883 232.164 775.637 202.762C700.392 173.361 630.297 172.808 619.077 201.528C607.857 230.247 659.76 277.363 735.006 306.764C810.251 336.166 880.346 336.718 891.566 307.999Z" fill="#B14225"/>
<path d="M950.793 283.708C966.14 244.668 900.229 182.215 803.577 144.216C706.926 106.217 616.134 107.061 600.787 146.101C585.441 185.141 651.351 247.594 748.003 285.593C844.654 323.592 935.447 322.748 950.793 283.708Z" fill="#E6881C"/>
<path d="M616.158 184.546C625.553 184.546 633.17 176.929 633.17 167.533C633.17 158.136 625.553 150.519 616.158 150.519C606.762 150.519 599.146 158.136 599.146 167.533C599.146 176.929 606.762 184.546 616.158 184.546Z" fill="#FFD69F"/>
<path d="M613.074 184.354C622.252 184.354 629.692 176.913 629.692 167.735C629.692 158.557 622.252 151.117 613.074 151.117C603.897 151.117 596.457 158.557 596.457 167.735C596.457 176.913 603.897 184.354 613.074 184.354Z" fill="#B14225"/>
<path d="M936.536 304.879C945.713 304.879 953.153 297.439 953.153 288.261C953.153 279.082 945.713 271.642 936.536 271.642C927.358 271.642 919.918 279.082 919.918 288.261C919.918 297.439 927.358 304.879 936.536 304.879Z" fill="#B14225"/>
<path d="M919.919 288.26C919.918 285.281 920.718 282.357 922.235 279.794C923.752 277.23 925.931 275.122 928.542 273.689C931.154 272.256 934.102 271.552 937.079 271.65C940.056 271.749 942.952 272.645 945.464 274.247C943.852 272.527 941.892 271.17 939.715 270.265C937.538 269.361 935.194 268.931 932.837 269.002C930.481 269.074 928.167 269.646 926.049 270.681C923.931 271.715 922.058 273.189 920.553 275.004C919.048 276.818 917.947 278.932 917.322 281.205C916.697 283.478 916.563 285.858 916.928 288.187C917.294 290.516 918.151 292.741 919.442 294.713C920.733 296.685 922.43 298.36 924.418 299.626C921.524 296.55 919.914 292.484 919.919 288.26Z" fill="#FFD69F"/>
<path d="M920.097 244.904C930.634 216.905 876.793 170.728 799.841 141.765C722.888 112.801 651.964 112.019 641.428 140.018C630.891 168.016 684.732 214.193 761.684 243.157C838.637 272.12 909.561 272.902 920.097 244.904Z" fill="#B14225"/>
<path d="M900.022 140.956C900.022 160.458 887.638 198.447 877.102 216.747C873.763 196.955 840.617 164.573 789.67 145.393C736.924 125.541 691.612 125.891 677.841 140.217C687.528 85.7533 733.527 33 787.638 33C848.817 33.0005 900.022 76.0088 900.022 140.956Z" fill="white"/>
<path d="M880.896 215.189C888.037 196.212 848.167 163.642 791.842 142.443C735.518 121.243 684.069 119.442 676.927 138.419C669.786 157.396 709.656 189.966 765.98 211.165C822.305 232.365 873.754 234.166 880.896 215.189Z" fill="#044568"/>
<path d="M782.349 142.993C782.349 142.993 741.88 134.615 722.451 148.451C703.022 162.286 743.48 178.429 756.238 175.12C756.238 175.12 760.113 180.116 763.443 177.903C766.773 175.69 760.677 172.908 760.677 172.908C760.677 172.908 770.106 171.258 763.461 166.812C756.816 162.365 755.142 167.907 755.142 167.907C748.995 166.118 742.815 164.467 736.687 162.691C733.775 161.846 731.114 158.997 733.149 156.074C734.873 153.596 739.835 153.558 742.409 153.469C752.404 153.189 762.407 153.574 772.352 154.622L782.349 142.993Z" fill="#E6881C"/>
<path d="M808.599 155.9C808.599 155.9 845.815 173.868 852.82 196.669C859.824 219.47 817.897 207.671 809.782 197.283C809.782 197.283 803.667 198.891 802.371 195.108C801.074 191.326 807.604 192.827 807.604 192.827C807.604 192.827 801.124 185.781 809.105 186.296C817.085 186.811 815.04 192.228 815.04 192.228C821.007 194.547 826.917 196.996 832.86 199.314C835.685 200.415 839.53 199.773 839.694 196.216C839.831 193.199 835.918 190.151 833.929 188.515C826.165 182.212 817.992 176.432 809.461 171.214L808.599 155.9Z" fill="#E6881C"/>
<path d="M780.506 139.664C779.396 140.032 737.194 179.159 740.861 199.5C744.529 219.84 774.84 222.101 774.84 222.101C774.84 222.101 790.36 226.56 795.547 218.435C800.735 210.309 812.249 172.614 813.755 154.131C815.261 135.649 780.506 139.664 780.506 139.664Z" fill="#E6881C"/>
<path d="M818.142 203.445C814.432 201.534 811.418 199.379 809.783 197.284C809.783 197.284 803.669 198.89 802.373 195.111C801.078 191.333 807.604 192.829 807.604 192.829C807.604 192.829 801.122 185.779 809.106 186.298C817.089 186.816 815.041 192.227 815.041 192.227C816.456 192.778 817.871 193.335 819.287 193.901C819.369 197.001 819.225 201.021 818.142 203.445Z" fill="#E6881C"/>
<path d="M802.952 207.959L785.148 192.66L790.614 170.027L781.63 168.505L778.681 191.358L755.84 194.404L757.681 203.33L780.336 197.461L796.662 214.551L802.952 207.959Z" fill="#76ABB3"/>
<path d="M780.436 163.787C774.66 163.779 769.012 165.484 764.205 168.686C759.397 171.888 755.648 176.444 753.429 181.777C751.211 187.111 750.624 192.982 751.743 198.649C752.861 204.316 755.635 209.525 759.713 213.615C763.791 217.706 768.991 220.495 774.654 221.631C780.317 222.766 786.19 222.197 791.53 219.994C796.869 217.792 801.436 214.056 804.652 209.258C807.869 204.46 809.59 198.816 809.599 193.039C809.605 189.204 808.856 185.404 807.393 181.858C805.931 178.312 803.784 175.089 801.076 172.372C798.368 169.656 795.152 167.5 791.61 166.026C788.069 164.553 784.272 163.792 780.436 163.787ZM780.362 214.683C776.073 214.677 771.882 213.399 768.319 211.01C764.756 208.622 761.981 205.23 760.345 201.265C758.71 197.299 758.287 192.938 759.13 188.732C759.973 184.526 762.044 180.664 765.081 177.636C768.119 174.607 771.986 172.547 776.194 171.716C780.402 170.885 784.762 171.321 788.723 172.969C792.683 174.616 796.066 177.401 798.444 180.971C800.821 184.541 802.087 188.736 802.081 193.026C802.077 195.874 801.512 198.694 800.418 201.324C799.324 203.953 797.723 206.342 795.706 208.353C793.69 210.364 791.296 211.958 788.664 213.044C786.031 214.13 783.21 214.687 780.362 214.683H780.362Z" fill="white"/>
<path d="M818.142 203.445C814.432 201.534 811.418 199.379 809.783 197.284C809.783 197.284 803.669 198.89 802.373 195.111C801.078 191.333 807.604 192.829 807.604 192.829C807.604 192.829 801.122 185.779 809.106 186.298C817.089 186.816 815.041 192.227 815.041 192.227C816.456 192.778 817.871 193.335 819.287 193.901C819.369 197.001 819.225 201.021 818.142 203.445Z" fill="#B14225"/>
<path d="M745.926 174.701C750.017 175.523 753.719 175.717 756.302 175.098C756.302 175.098 760.082 180.168 763.451 178.019C766.827 175.874 760.784 172.972 760.784 172.972C760.784 172.972 770.247 171.503 763.683 166.93C757.127 162.356 755.345 167.864 755.345 167.864C753.897 167.411 752.443 166.964 750.983 166.524C748.984 168.898 746.592 172.133 745.926 174.701Z" fill="#B14225"/>
<path d="M844.034 135.865C832.418 154.384 803.148 162.516 788.741 153.747C777.296 146.779 764.484 111.762 776.101 93.2439C787.717 74.7259 812.343 69.2551 831.102 81.0245C849.861 92.7939 855.651 117.347 844.034 135.865Z" fill="#B14225"/>
<path d="M824.666 77.7744C806.374 69.9926 782.679 77.8867 774.33 96.5908C765.581 116.188 777.825 148 789.434 153.465C791.81 154.584 794.917 155.219 798.451 155.382C813.266 153.226 830.455 145.097 836.599 131.338C845.055 112.388 840.954 89.5707 824.666 77.7744Z" fill="#E6881C"/>
<path d="M809.379 126.321C809.379 126.321 823.355 105.676 835.298 113.882C842.753 119.003 836.71 129.945 826.599 129.522C816.488 129.099 809.379 126.321 809.379 126.321Z" fill="#B14225"/>
<path d="M825.922 120.051C828.121 119.726 829.764 118.52 829.592 117.356C829.421 116.192 827.499 115.511 825.301 115.836C823.102 116.16 821.459 117.367 821.631 118.531C821.803 119.694 823.724 120.375 825.922 120.051Z" fill="#FDFEF9"/>
<path d="M796.074 122.162C796.074 122.162 798.553 98.4952 784.787 97.1476C776.195 96.3056 773.883 108.009 781.529 113.917C789.174 119.825 796.074 122.162 796.074 122.162Z" fill="#B14225"/>
<path d="M792.23 109.681C793.11 108.901 792.63 106.92 791.156 105.256C789.683 103.592 787.775 102.876 786.894 103.656C786.013 104.436 786.494 106.417 787.967 108.081C789.44 109.744 791.349 110.461 792.23 109.681Z" fill="#FDFEF9"/>
<path d="M793.223 145.056C793.06 145.062 792.899 145.021 792.758 144.94C792.617 144.859 792.501 144.74 792.424 144.597L790.016 140.127C789.961 140.026 789.927 139.915 789.916 139.801C789.904 139.687 789.915 139.572 789.948 139.462C789.981 139.352 790.035 139.249 790.108 139.16C790.18 139.071 790.269 138.998 790.37 138.943C790.472 138.889 790.582 138.855 790.696 138.843C790.811 138.831 790.926 138.842 791.036 138.875C791.146 138.908 791.248 138.963 791.337 139.035C791.426 139.108 791.5 139.197 791.554 139.298L793.579 143.055L797.466 141.331C797.572 141.279 797.687 141.249 797.804 141.243C797.922 141.237 798.039 141.255 798.149 141.295C798.26 141.335 798.361 141.397 798.447 141.477C798.533 141.557 798.601 141.654 798.649 141.761C798.697 141.869 798.722 141.985 798.724 142.102C798.726 142.22 798.704 142.336 798.66 142.445C798.616 142.554 798.55 142.653 798.467 142.736C798.384 142.819 798.285 142.884 798.176 142.928L793.548 144.981C793.445 145.027 793.335 145.052 793.223 145.056Z" fill="#B14225"/>
<path d="M676.926 138.419C676.926 138.419 669.709 182.734 797.989 221.554C845.123 232.461 871.185 224.697 876.731 221.369L888.93 245.216C888.93 245.216 825.715 257.416 748.635 223.033C671.555 188.651 666.566 163.694 661.575 154.266L676.926 138.419Z" fill="#B14225"/>
<path d="M634.011 465.46C670.909 465.404 700.776 435.45 700.72 398.554C700.665 361.659 670.708 331.794 633.81 331.849C596.912 331.905 567.045 361.859 567.1 398.755C567.156 435.65 597.112 465.515 634.011 465.46Z" fill="black"/>
<path d="M618.474 378.511C618.465 361.18 625.164 344.517 637.168 332.015C636.083 331.962 635.011 331.851 633.912 331.851C622.91 331.848 612.078 334.562 602.377 339.751C592.676 344.941 584.407 352.445 578.304 361.599C572.201 370.752 568.453 381.271 567.393 392.221C566.333 403.171 567.994 414.213 572.229 424.367C576.463 434.52 583.139 443.472 591.665 450.425C600.19 457.378 610.301 462.119 621.099 464.225C631.898 466.332 643.049 465.739 653.563 462.5C664.078 459.261 673.629 453.475 681.37 445.658C664.323 444.533 648.341 436.971 636.662 424.503C624.983 412.035 618.482 395.594 618.474 378.511Z" fill="#391C1C"/>
<path d="M649.034 367.348C654.471 367.348 658.879 364.277 658.879 360.487C658.879 356.698 654.471 353.626 649.034 353.626C643.597 353.626 639.19 356.698 639.19 360.487C639.19 364.277 643.597 367.348 649.034 367.348Z" fill="#391C1C"/>
<path d="M650.265 421.684C654.343 421.684 657.649 419.12 657.649 415.957C657.649 412.794 654.343 410.23 650.265 410.23C646.187 410.23 642.881 412.794 642.881 415.957C642.881 419.12 646.187 421.684 650.265 421.684Z" fill="#391C1C"/>
<path d="M681.03 404.704C687.826 404.704 693.336 400.156 693.336 394.546C693.336 388.937 687.826 384.389 681.03 384.389C674.233 384.389 668.724 388.937 668.724 394.546C668.724 400.156 674.233 404.704 681.03 404.704Z" fill="#391C1C"/>
<path d="M593.658 397.912C600.454 397.912 605.964 393.783 605.964 388.69C605.964 383.596 600.454 379.467 593.658 379.467C586.861 379.467 581.352 383.596 581.352 388.69C581.352 393.783 586.861 397.912 593.658 397.912Z" fill="#3E3123"/>
<path d="M610.886 448.853C614.964 448.853 618.27 446.542 618.27 443.692C618.27 440.842 614.964 438.532 610.886 438.532C606.808 438.532 603.503 440.842 603.503 443.692C603.503 446.542 606.808 448.853 610.886 448.853Z" fill="#1F170D"/>
<path d="M666.307 356.671C678.739 369.858 696.386 389.026 728.741 352.299" stroke="black" stroke-width="12.2425"/>
<path d="M725.03 376.488L721.36 361.361L705.84 360.176L719.092 352.012L715.423 336.885L727.359 345.97L740.536 338.801L734.613 353.196L746.473 363.277L730.953 362.093L725.03 376.488Z" fill="#DBFF00"/>
<path d="M716.389 373.694L720.014 358.556L706.737 350.43L722.255 349.201L725.88 334.063L732.366 347.589L747.362 347.211L735.531 357.326L741.496 371.704L728.219 363.578L716.389 373.694Z" fill="#DBFF00"/>
</g>
<defs>
<clipPath id="clip0">
<rect width="1024" height="1024" fill="white"/>
</clipPath>
</defs>
</svg>
